<svg width="16" height="16" viewBox="0 0 16 16" fill="none" xmlns="http://www.w3.org/2000/svg">
<path d="M15.8306 8.56571C15.3057 6.34366 13.4763 4.57078 11.2373 4.12369C10.1773 3.90816 9.0791 3.97955 8.056 4.33048C8.16973 3.57377 8.47491 2.85866 8.94257 2.25299C9.41024 1.64732 10.0249 1.17118 10.7282 0.869728C11.1444 0.69175 11.0506 0.075416 10.6003 0.030068C9.91909 -0.0371637 9.23144 0.00993299 8.56577 0.169412C6.34386 0.694313 4.57092 2.52378 4.12391 4.76279C3.90832 5.82273 3.9797 6.92101 4.33069 7.94412C3.57398 7.83037 2.85887 7.52517 2.25319 7.05749C1.64752 6.58982 1.17137 5.97516 0.869905 5.27182C0.691928 4.85575 0.0755987 4.94944 0.0301902 5.39975C-0.0370503 6.08095 0.0100669 6.76859 0.169593 7.43424C0.694491 9.65628 2.52395 11.4292 4.76294 11.8762C5.82286 12.0918 6.9211 12.0204 7.94419 11.6695C7.83046 12.4262 7.52529 13.1413 7.05762 13.747C6.58996 14.3526 5.9753 14.8288 5.27197 15.1302C4.85584 15.3082 4.94959 15.9245 5.3999 15.9699C6.0811 16.0371 6.76875 15.99 7.43443 15.8305C9.65634 15.3056 11.4293 13.4762 11.8763 11.2372C12.0919 10.1772 12.0205 9.07893 11.6695 8.05582C12.4262 8.16958 13.1413 8.47477 13.747 8.94245C14.3527 9.41013 14.8288 10.0248 15.1303 10.7281C15.3083 11.1442 15.9246 11.0505 15.97 10.6002C16.0372 9.919 15.9901 9.23136 15.8306 8.56571V8.56571ZM8.0001 9.49997C7.70343 9.49997 7.41342 9.412 7.16674 9.24718C6.92007 9.08236 6.7278 8.84809 6.61427 8.574C6.50074 8.29992 6.47103 7.99832 6.52891 7.70734C6.58678 7.41637 6.72964 7.1491 6.93942 6.93932C7.1492 6.72954 7.41648 6.58667 7.70745 6.5288C7.99842 6.47092 8.30002 6.50062 8.57411 6.61415C8.8482 6.72768 9.08247 6.91994 9.24729 7.16662C9.41211 7.41329 9.50009 7.7033 9.50009 7.99997C9.50008 8.39779 9.34204 8.77932 9.06074 9.06062C8.77944 9.34192 8.39792 9.49996 8.0001 9.49997Z" fill="#213F7D"/>
</svg>
